<svg width="121" height="35" viewBox="0 0 121 35" fill="none" xmlns="http://www.w3.org/2000/svg">
<path fill-rule="evenodd" clip-rule="evenodd" d="M76.1999 10.31L74.1999 6.93L70.6499 8.62L68.6499 5.23L65.0999 6.93L63.1099 3.53L59.5599 5.23L57.5599 1.84L54.0099 3.54L52.0199 0.139999L48.4599 1.84L40.9299 26.36L50.0799 29.16C50.4246 28.0548 51.1532 27.1094 52.1341 26.4945C53.1151 25.8797 54.2835 25.636 55.4285 25.8075C56.5734 25.979 57.6192 26.5543 58.3769 27.4296C59.1346 28.3049 59.5542 29.4223 59.5599 30.58V30.68C59.5799 31.12 59.5299 31.56 59.3999 32L68.6999 34.85L76.1999 10.31Z" fill="#D61920"/>
<path fill-rule="evenodd" clip-rule="evenodd" d="M48.7799 24.34C48.5486 24.3017 48.3387 24.1818 48.1882 24.002C48.0378 23.8222 47.9568 23.5944 47.9599 23.36V11.36C47.9586 11.2283 47.9835 11.0977 48.0333 10.9757C48.0831 10.8538 48.1567 10.743 48.2498 10.6499C48.343 10.5568 48.4537 10.4832 48.5757 10.4334C48.6976 10.3836 48.8282 10.3587 48.9599 10.36H57.6299C58.1408 10.3587 58.6469 10.458 59.1193 10.6523C59.5918 10.8466 60.0214 11.132 60.3835 11.4923C60.7457 11.8526 61.0333 12.2807 61.23 12.7521C61.4267 13.2236 61.5286 13.7292 61.5299 14.24V23.36C61.5297 23.5073 61.4969 23.6527 61.4339 23.7858C61.3709 23.9189 61.2793 24.0365 61.1656 24.1301C61.052 24.2238 60.919 24.2911 60.7762 24.3274C60.6335 24.3637 60.4845 24.368 60.3399 24.34C60.1105 24.2996 59.9029 24.1788 59.7544 23.9992C59.606 23.8196 59.5264 23.593 59.5299 23.36V14.25C59.5299 13.7461 59.3298 13.2628 58.9734 12.9065C58.6171 12.5502 58.1338 12.35 57.6299 12.35H55.7399V23.35C55.7407 23.484 55.7146 23.6168 55.663 23.7405C55.6115 23.8641 55.5356 23.9762 55.4399 24.07C55.3261 24.1829 55.1865 24.2665 55.0332 24.3135C54.8799 24.3605 54.7175 24.3696 54.5599 24.34C54.3286 24.3017 54.1187 24.1818 53.9682 24.002C53.8178 23.8222 53.7368 23.5944 53.7399 23.36V12.35H49.9599V23.35C49.9609 23.4971 49.9293 23.6426 49.8676 23.7761C49.8058 23.9096 49.7154 24.0279 49.6027 24.1224C49.49 24.217 49.3578 24.2855 49.2156 24.3231C49.0734 24.3607 48.9246 24.3665 48.7799 24.34ZM63.1999 29.57C62.9669 29.5315 62.7556 29.4101 62.6049 29.2282C62.4543 29.0463 62.3744 28.8161 62.3799 28.58C62.381 28.3177 62.4852 28.0663 62.6699 27.88C62.8546 27.6916 63.1062 27.5838 63.3699 27.58C64.2199 27.58 64.9499 27.04 65.1899 26.23L66.2199 22.8L62.8499 11.53C62.8097 11.404 62.795 11.2712 62.8064 11.1394C62.8179 11.0076 62.8554 10.8794 62.9168 10.7622C62.9782 10.645 63.0622 10.5411 63.1641 10.4567C63.2659 10.3722 63.3834 10.3087 63.5099 10.27C63.7618 10.2002 64.0309 10.2297 64.2616 10.3525C64.4924 10.4753 64.6672 10.6821 64.7499 10.93L67.2499 19.33L69.7899 10.93C69.9099 10.47 70.4199 10.16 70.9399 10.26L71.0099 10.27C71.5499 10.44 71.8499 11.01 71.6899 11.54L68.2199 23.1L67.1199 26.8C66.8731 27.5963 66.3836 28.2955 65.7199 28.8C65.0449 29.3063 64.2238 29.58 63.3799 29.58C63.3197 29.5823 63.2595 29.579 63.1999 29.57Z" fill="#FEFEFE"/>
<path fill-rule="evenodd" clip-rule="evenodd" d="M2.07998 22.15H4.03998C4.56245 22.15 5.06353 21.9424 5.43298 21.573C5.80242 21.2036 6.00998 20.7025 6.00998 20.18V14.41C6.01129 14.1513 5.96164 13.8949 5.86385 13.6553C5.76607 13.4158 5.62206 13.1979 5.44006 13.0141C5.25805 12.8302 5.04162 12.684 4.80311 12.5838C4.5646 12.4836 4.30868 12.4313 4.04998 12.43H2.07998V22.13V22.15ZM0.849978 24.21C0.609865 24.1694 0.392187 24.0443 0.236292 23.8572C0.0803981 23.6702 -0.00342439 23.4335 -2.24449e-05 23.19V5.27C-0.00179004 5.1329 0.0238352 4.99682 0.0753505 4.86975C0.126866 4.74268 0.203234 4.62717 0.299978 4.53C0.417023 4.40846 0.562134 4.31754 0.722554 4.26523C0.882973 4.21292 1.05379 4.20082 1.21998 4.23C1.71998 4.33 2.07998 4.75 2.07998 5.26V10.36H4.03998C4.57136 10.3587 5.09778 10.4622 5.58909 10.6647C6.0804 10.8671 6.52695 11.1645 6.90316 11.5397C7.27936 11.915 7.57784 12.3608 7.7815 12.8516C7.98515 13.3425 8.08998 13.8686 8.08998 14.4V20.17C8.08734 21.2407 7.66085 22.2667 6.90377 23.0238C6.1467 23.7809 5.12064 24.2074 4.04998 24.21H1.03998C0.973146 24.214 0.906082 24.2106 0.839978 24.2L0.849978 24.21Z" fill="#333545"/>
<path fill-rule="evenodd" clip-rule="evenodd" d="M15.14 12.35C15.0277 12.3304 14.914 12.3203 14.8 12.32C14.5406 12.3173 14.2832 12.3665 14.043 12.4645C13.8028 12.5626 13.5845 12.7076 13.4011 12.891C13.2176 13.0745 13.0726 13.2927 12.9745 13.533C12.8765 13.7732 12.8273 14.0306 12.83 14.29V20.3C12.8287 20.5591 12.8787 20.8158 12.9773 21.0555C13.0758 21.2951 13.2209 21.5128 13.4041 21.696C13.5873 21.8791 13.805 22.0242 14.0446 22.1227C14.2842 22.2213 14.5409 22.2713 14.8 22.27C15.3225 22.27 15.8236 22.0624 16.193 21.693C16.5625 21.3236 16.77 20.8225 16.77 20.3V14.3C16.77 13.33 16.08 12.52 15.14 12.35ZM14.09 24.3C13.1524 24.1351 12.3032 23.6443 11.6921 22.9143C11.0811 22.1843 10.7474 21.262 10.75 20.31V14.3C10.7483 13.7681 10.8526 13.2412 11.0569 12.7501C11.2613 12.259 11.5615 11.8137 11.94 11.44C12.3155 11.0646 12.7615 10.7671 13.2523 10.5646C13.7431 10.3621 14.2691 10.2586 14.8 10.26C15.8715 10.26 16.8991 10.6856 17.6567 11.4433C18.4144 12.2009 18.84 13.2285 18.84 14.3V20.31C18.84 21.39 18.42 22.41 17.65 23.18C17.2761 23.5546 16.8318 23.8517 16.3427 24.0542C15.8536 24.2567 15.3294 24.3606 14.8 24.36C14.562 24.361 14.3245 24.3409 14.09 24.3ZM25.89 12.36C25.7778 12.3403 25.664 12.3303 25.55 12.33C25.2906 12.3273 25.0332 12.3765 24.793 12.4745C24.5528 12.5726 24.3345 12.7176 24.1511 12.901C23.9676 13.0845 23.8226 13.3027 23.7245 13.543C23.6265 13.7832 23.5773 14.0406 23.58 14.3V20.31C23.5787 20.5691 23.6287 20.8258 23.7273 21.0654C23.8258 21.3051 23.9709 21.5228 24.1541 21.706C24.3373 21.8891 24.555 22.0342 24.7946 22.1327C25.0342 22.2313 25.2909 22.2813 25.55 22.28C25.8091 22.2813 26.0659 22.2313 26.3055 22.1327C26.5451 22.0342 26.7628 21.8891 26.946 21.706C27.1292 21.5228 27.2742 21.3051 27.3728 21.0654C27.4713 20.8258 27.5213 20.5691 27.52 20.31V14.3C27.52 13.34 26.83 12.53 25.89 12.36ZM24.84 24.3C23.9043 24.1329 23.0574 23.6413 22.4483 22.9115C21.8392 22.1817 21.507 21.2605 21.51 20.31V14.3C21.5116 13.7106 21.6418 13.1287 21.8915 12.5949C22.1412 12.0611 22.5043 11.5881 22.9557 11.2092C23.407 10.8302 23.9357 10.5543 24.5046 10.4007C25.0736 10.2471 25.6693 10.2196 26.25 10.32C27.1878 10.4825 28.038 10.9709 28.6509 11.699C29.2637 12.4272 29.5999 13.3483 29.6 14.3V20.31C29.6012 20.8442 29.4957 21.3733 29.2897 21.8661C29.0836 22.359 28.7811 22.8057 28.4 23.18C28.0261 23.5546 27.5818 23.8517 27.0927 24.0542C26.6036 24.2567 26.0794 24.3606 25.55 24.36C25.31 24.36 25.07 24.34 24.84 24.3ZM33.11 24.34C32.8699 24.2994 32.6522 24.1743 32.4963 23.9872C32.3404 23.8002 32.2566 23.5635 32.26 23.32V5.27C32.26 4.99 32.36 4.72 32.56 4.53C32.678 4.41355 32.8223 4.32729 32.9807 4.27854C33.1392 4.2298 33.307 4.22 33.47 4.25C33.97 4.33 34.34 4.76 34.34 5.27V15.95L39.12 10.59C39.36 10.33 39.72 10.21 40.08 10.27C40.2615 10.3004 40.4316 10.3788 40.5725 10.4972C40.7134 10.6156 40.8201 10.7695 40.8813 10.9431C40.9426 11.1166 40.9562 11.3034 40.9208 11.484C40.8854 11.6646 40.8023 11.8324 40.68 11.97L37.07 16L40.8 22.83C40.8672 22.9452 40.9106 23.0727 40.9278 23.2049C40.945 23.3371 40.9355 23.4715 40.9 23.6C40.8614 23.7325 40.7962 23.8557 40.7086 23.9623C40.6209 24.0689 40.5125 24.1565 40.39 24.22C40.1783 24.3417 39.9302 24.3843 39.69 24.34C39.5406 24.3147 39.3986 24.2568 39.2742 24.1704C39.1497 24.084 39.0459 23.9712 38.97 23.84L35.61 17.66L34.33 19.07V23.32C34.33 23.5958 34.2204 23.8604 34.0254 24.0554C33.8304 24.2504 33.5658 24.36 33.29 24.36C33.22 24.36 33.16 24.36 33.09 24.34H33.11ZM78.92 24.33C78.3577 24.2358 77.8234 24.0173 77.3563 23.6903C76.8892 23.3633 76.501 22.9361 76.22 22.44C76.0826 22.1969 76.0467 21.9094 76.12 21.64C76.2 21.38 76.37 21.16 76.6 21.02C76.8136 20.9033 77.061 20.8644 77.3 20.91C77.6 20.96 77.87 21.14 78.02 21.41C78.29 21.87 78.72 22.17 79.25 22.26C79.5233 22.3075 79.8037 22.2925 80.0704 22.2163C80.3371 22.1402 80.5831 22.0047 80.79 21.82C81.19 21.45 81.39 20.92 81.34 20.4C81.3289 20.1335 81.2552 19.8733 81.1249 19.6405C80.9947 19.4077 80.8114 19.2088 80.59 19.06L77.79 17.07C77.3338 16.7497 76.9539 16.3326 76.6774 15.8487C76.4008 15.3647 76.2344 14.8257 76.19 14.27C76.1538 13.7094 76.2458 13.1479 76.4589 12.6281C76.672 12.1083 77.0007 11.6439 77.42 11.27C77.8291 10.8897 78.3178 10.6053 78.8506 10.4375C79.3834 10.2697 79.9468 10.2228 80.5 10.3C81.68 10.5 82.64 11.18 83.19 12.14C83.3225 12.3799 83.357 12.6618 83.2861 12.9266C83.2153 13.1913 83.0446 13.4183 82.81 13.56C82.5983 13.6817 82.3502 13.7243 82.11 13.68C81.9606 13.6547 81.8186 13.5968 81.6942 13.5104C81.5697 13.424 81.4659 13.3112 81.39 13.18C81.2646 12.9678 81.0937 12.7861 80.8897 12.6478C80.6857 12.5094 80.4536 12.418 80.21 12.38C79.9609 12.3349 79.7046 12.3485 79.4616 12.4196C79.2186 12.4908 78.9955 12.6176 78.81 12.79C78.6289 12.9609 78.4876 13.1695 78.396 13.4011C78.3044 13.6326 78.2648 13.8815 78.28 14.13C78.3 14.62 78.58 15.1 79 15.38L81.8 17.33C82.2753 17.6628 82.6684 18.0997 82.9491 18.6075C83.2299 19.1153 83.3909 19.6805 83.42 20.26C83.4663 20.8368 83.3775 21.4164 83.1605 21.9528C82.9435 22.4893 82.6043 22.9676 82.17 23.35C81.7476 23.7425 81.243 24.0359 80.6929 24.2089C80.1428 24.3819 79.5611 24.4301 78.99 24.35L78.91 24.33H78.92ZM86.95 24.36C86.7098 24.3178 86.4921 24.1925 86.3349 24.0061C86.1777 23.8196 86.091 23.5839 86.09 23.34V5.29C86.0887 5.15305 86.1147 5.01721 86.1665 4.89043C86.2183 4.76365 86.2948 4.64847 86.3917 4.55163C86.4885 4.45479 86.6037 4.37823 86.7305 4.32644C86.8572 4.27465 86.9931 4.24866 87.13 4.25L87.33 4.26C87.83 4.36 88.17 4.77 88.17 5.29V10.39H90.14C90.6709 10.3887 91.1969 10.4923 91.6876 10.6948C92.1784 10.8974 92.6243 11.1949 92.9997 11.5703C93.3751 11.9458 93.6726 12.3916 93.8752 12.8824C94.0777 13.3731 94.1813 13.8991 94.18 14.43V23.33C94.1809 23.481 94.1485 23.6303 94.0853 23.7674C94.022 23.9045 93.9294 24.026 93.8139 24.1234C93.6985 24.2207 93.563 24.2914 93.4172 24.3306C93.2714 24.3698 93.1187 24.3764 92.97 24.35C92.47 24.26 92.11 23.83 92.11 23.32V14.42C92.11 14.1618 92.059 13.9061 91.9599 13.6676C91.8608 13.4292 91.7155 13.2127 91.5324 13.0305C91.3494 12.8484 91.1321 12.7042 90.8932 12.6063C90.6542 12.5084 90.3983 12.4587 90.14 12.46H88.17V23.33C88.1712 23.482 88.1386 23.6324 88.0748 23.7703C88.0109 23.9083 87.9173 24.0304 87.8007 24.1279C87.6841 24.2254 87.5473 24.2959 87.4003 24.3343C87.2532 24.3727 87.0994 24.378 86.95 24.35V24.36ZM101.23 12.37C100.947 12.3186 100.655 12.3302 100.377 12.4041C100.099 12.478 99.84 12.6124 99.6195 12.7976C99.3989 12.9828 99.2219 13.2144 99.101 13.4758C98.9801 13.7372 98.9183 14.022 98.92 14.31V20.32C98.9187 20.5782 98.9684 20.8342 99.0663 21.0731C99.1642 21.3121 99.3084 21.5293 99.4905 21.7124C99.6727 21.8955 99.8892 22.0407 100.128 22.1399C100.366 22.239 100.622 22.29 100.88 22.29C101.4 22.29 101.9 22.09 102.27 21.72C102.455 21.5372 102.602 21.3191 102.702 21.0786C102.801 20.8382 102.852 20.5803 102.85 20.32V14.3C102.85 13.34 102.17 12.52 101.22 12.36L101.23 12.37ZM100.17 24.29C99.2351 24.1251 98.3884 23.6354 97.7792 22.9073C97.17 22.1792 96.8374 21.2594 96.84 20.31V14.3C96.8401 13.7098 96.9692 13.1268 97.2183 12.5917C97.4674 12.0566 97.8304 11.5825 98.2819 11.2024C98.7334 10.8223 99.2625 10.5455 99.8322 10.3914C100.402 10.2372 100.998 10.2094 101.58 10.31C102.519 10.4728 103.371 10.9627 103.984 11.6929C104.597 12.4231 104.932 13.3466 104.93 14.3V20.31C104.93 20.8426 104.825 21.3699 104.619 21.861C104.412 22.3522 104.11 22.7972 103.73 23.17C103.271 23.6306 102.708 23.9731 102.088 24.1682C101.468 24.3632 100.81 24.405 100.17 24.29Z" fill="#333545"/>
<path fill-rule="evenodd" clip-rule="evenodd" d="M120.9 11.54C120.934 11.413 120.943 11.2804 120.926 11.15C120.909 11.0196 120.866 10.8939 120.8 10.78C120.724 10.6586 120.625 10.5536 120.509 10.4712C120.392 10.3887 120.26 10.3305 120.12 10.3C119.862 10.2513 119.595 10.3028 119.374 10.444C119.153 10.5852 118.994 10.8056 118.93 11.06C118.93 11.11 117.81 15.62 116.93 19.05L116.91 19.12L116.89 19.05L114.89 11.07C114.852 10.8752 114.754 10.6969 114.611 10.5592C114.468 10.4215 114.286 10.331 114.09 10.3C114.031 10.2883 113.97 10.2816 113.91 10.28C113.45 10.28 113.05 10.6 112.92 11.06C112.91 11.11 111.79 15.62 110.92 19.05L110.9 19.12L110.88 19.05C110.03 15.62 108.88 11.11 108.88 11.06C108.833 10.8686 108.731 10.695 108.588 10.5601C108.444 10.4252 108.264 10.3349 108.07 10.3C107.904 10.2706 107.732 10.283 107.572 10.3361C107.411 10.3893 107.267 10.4815 107.151 10.6044C107.035 10.7274 106.951 10.8773 106.907 11.0406C106.863 11.2039 106.861 11.3755 106.9 11.54L109.91 23.57C109.967 23.7905 110.095 23.9861 110.273 24.127C110.452 24.268 110.672 24.3463 110.9 24.35C111.39 24.35 111.78 24.03 111.88 23.57L113.88 15.58L113.91 15.51L113.93 15.58C114.81 19.05 115.93 23.58 115.93 23.58C115.99 23.7962 116.117 23.9876 116.293 24.1261C116.47 24.2647 116.686 24.3431 116.91 24.35C117.14 24.3572 117.366 24.2829 117.547 24.1403C117.728 23.9976 117.853 23.7957 117.9 23.57L120.9 11.54Z" fill="#333545"/>
</svg>
